# xmcd CD database file
#
# Track frame offsets:
#	150
#	15835
#	27290
#	38587
#	48402
#	61865
#	77437
#	92770
#	105092
#	120352
#	132022
#	143992
#
# Disc length: 2122 seconds
#
# Revision: 0
# Processed by: cddbd v1.5.1PL0 Copyright (c) Steve Scherf et al.
# Submitted via: CDex 1.51
#
DISCID=7e08480c
DTITLE=加山雄三 - 加山雄三のすべて　第二集
DYEAR=1900
DGENRE=JPop
TTITLE0=夜空を仰いで
TTITLE1=アイ・フィール・ソー・ファイン
TTITLE2=マイ・ジプシー・ダンス
TTITLE3=ハロー・スージィ
TTITLE4=アイ・ユースト・トゥー・ビー
TTITLE5=心の海
TTITLE6=旅人よ
TTITLE7=スリーピング・モンスター
TTITLE8=僕は生きている
TTITLE9=フォー・オクロック
TTITLE10=サンセット・オブ・ザ・ハーバー
TTITLE11=まだ見ぬ恋人
EXTD=
EXTT0=
EXTT1=
EXTT2=
EXTT3=
EXTT4=
EXTT5=
EXTT6=
EXTT7=
EXTT8=
EXTT9=
EXTT10=
EXTT11=
PLAYORDER=
